<svg width="1920" height="1080" viewBox="0 0 1920 1080" fill="none" xmlns="http://www.w3.org/2000/svg">
<mask id="mask0_313_2" style="mask-type:alpha" maskUnits="userSpaceOnUse" x="1389" y="108" width="531" height="865">
<path d="M1530.9 243.405C1530.9 243.405 1492.97 290.541 1501.13 368.488C1501.13 368.488 1500.03 397.704 1547.56 487.936C1547.56 487.936 1594.45 574.063 1593.34 584.743C1593.34 584.743 1610.86 631.789 1593.91 692.927C1593.91 692.927 1646.16 675.181 1644.32 592.315C1644.32 592.315 1641.36 546.533 1593.46 476.188C1593.46 476.188 1546.88 408.886 1537.12 372.425C1537.12 372.425 1512.84 297.452 1530.9 243.405Z" fill="white"/>
<path d="M1510.75 529.629C1425.23 570.663 1377.49 669.425 1391.39 764.774C1403.09 845.097 1454.74 920.492 1531.84 950.467C1617.86 983.912 1721.01 981.718 1800.18 933.141C1866.47 892.464 1915.11 817.896 1914.82 740.597C1914.65 696.55 1892.6 642.11 1846.57 585.544C1789.71 515.686 1760.71 494.499 1718.27 443.276C1669.74 384.711 1652.31 306.285 1652.36 231.725C1652.37 211.439 1662.59 164.878 1662.01 163.103C1616.42 228.757 1597.45 311.834 1613.4 392.055C1621.98 435.204 1639.26 477.528 1673.4 507.219C1706.06 535.628 1734.27 555.327 1764.39 586.995C1780.19 603.621 1811.05 636.435 1819.91 659.414C1834.47 697.223 1840.08 730.012 1830.25 770.133C1820.73 808.993 1789.22 837.323 1757.14 860.19C1719.58 886.969 1668.68 891.32 1622.84 887.577C1553.38 881.906 1487.47 834.019 1465.03 769.36C1444.31 709.626 1453.22 641.016 1487.01 587.715C1498.22 570.041 1506.77 550.369 1510.75 529.629Z" fill="white"/>
<path d="M1713.24 108C1687.5 125.019 1674.12 155.87 1668.14 185.132C1660.38 242.671 1663.83 302.283 1681.61 357.715C1705.09 411.889 1742.66 458.791 1785.31 499.181C1815.19 531.954 1848.71 561.85 1872.1 599.98C1892.37 627.512 1911.36 657.563 1918.04 691.577C1925.51 653.56 1909.56 616.564 1900.91 580.19C1889.85 544.724 1866.87 515.116 1849.06 483.121C1831.47 447.297 1828.91 406.507 1833.96 367.481C1835.2 335.918 1846.27 302.787 1834.15 272.262C1823.3 253.593 1803.33 241.285 1781.95 239.032C1811.5 249.686 1819.52 292.109 1796.67 313.405C1776.69 336.611 1736.88 327.635 1722.55 302.501C1706.45 279.409 1696.89 251.969 1698.16 223.578C1694.12 184.262 1699.42 145.037 1713.24 108Z" fill="white"/>
</mask>
<g mask="url(#mask0_313_2)">
<rect x="1389" y="108" width="526" height="865" fill="url(#paint0_linear_313_2)"/>
</g>
<defs>
<linearGradient id="paint0_linear_313_2" x1="1389" y1="973" x2="2157.01" y2="505.98" gradientUnits="userSpaceOnUse">
<stop stop-color="#000029"/>
<stop offset="0.760417" stop-color="#020059" stop-opacity="0.90526"/>
<stop offset="1" stop-color="#130047" stop-opacity="0.83"/>
</linearGradient>
</defs>
</svg>
