<svg width="531" height="865" viewBox="0 0 531 865" fill="none" xmlns="http://www.w3.org/2000/svg">
<mask id="mask0_322_15" style="mask-type:alpha" maskUnits="userSpaceOnUse" x="0" y="0" width="531" height="865">
<path d="M141.896 135.405C141.896 135.405 103.974 182.541 112.127 260.488C112.127 260.488 111.035 289.704 158.562 379.936C158.562 379.936 205.446 466.063 204.341 476.743C204.341 476.743 221.861 523.789 204.913 584.927C204.913 584.927 257.161 567.181 255.319 484.315C255.319 484.315 252.359 438.533 204.463 368.188C204.463 368.188 157.884 300.886 148.12 264.425C148.12 264.425 123.843 189.452 141.896 135.405Z" fill="white"/>
<path d="M121.75 421.629C36.2263 462.663 -11.512 561.425 2.38554 656.774C14.093 737.097 65.739 812.492 142.837 842.467C228.862 875.912 332.012 873.718 411.18 825.141C477.472 784.464 526.108 709.896 525.818 632.597C525.654 588.55 503.602 534.11 457.565 477.544C400.71 407.686 371.713 386.499 329.267 335.276C280.737 276.711 263.305 198.285 263.356 123.725C263.37 103.439 273.591 56.8782 273.015 55.103C227.416 120.757 208.453 203.834 224.4 284.055C232.978 327.204 250.257 369.528 284.397 399.219C317.062 427.628 345.274 447.327 375.385 478.995C391.194 495.621 422.053 528.435 430.906 551.414C445.472 589.223 451.076 622.012 441.25 662.133C431.734 700.993 400.223 729.323 368.144 752.19C330.577 778.969 279.683 783.32 233.844 779.577C164.381 773.906 98.4666 726.019 76.0325 661.36C55.3074 601.626 64.2206 533.016 98.0143 479.715C109.22 462.041 117.775 442.369 121.75 421.629Z" fill="white"/>
<path d="M324.244 0C298.495 17.0195 285.117 47.87 279.142 77.1324C271.379 134.67 274.832 194.283 292.608 249.715C316.093 303.889 353.664 350.791 396.305 391.181C426.189 423.954 459.71 453.85 483.096 491.98C503.372 519.512 522.363 549.563 529.036 583.577C536.506 545.56 520.558 508.564 511.909 472.19C500.853 436.724 477.868 407.116 460.063 375.121C442.471 339.297 439.907 298.507 444.957 259.481C446.204 227.918 457.275 194.787 445.152 164.262C434.305 145.593 414.326 133.285 392.947 131.032C422.501 141.686 430.524 184.109 407.666 205.405C387.692 228.611 347.876 219.635 333.55 194.501C317.452 171.409 307.894 143.969 309.16 115.578C305.123 76.2619 310.42 37.037 324.244 0Z" fill="white"/>
</mask>
<g mask="url(#mask0_322_15)">
<rect width="526" height="865" fill="url(#paint0_linear_322_15)"/>
</g>
<defs>
<linearGradient id="paint0_linear_322_15" x1="-3.33164e-06" y1="865" x2="768.009" y2="397.98" gradientUnits="userSpaceOnUse">
<stop stop-color="#000029"/>
<stop offset="0.760417" stop-color="#020059" stop-opacity="0.90526"/>
<stop offset="1" stop-color="#130047" stop-opacity="0.83"/>
</linearGradient>
</defs>
</svg>
